<svg xmlns="http://www.w3.org/2000/svg" xmlns:xlink="http://www.w3.org/1999/xlink" viewBox="0,0,256,256" width="28px" height="28px" fill-rule="nonzero"><defs><clipPath id="clip-1"><path d="M0,256v-256h256v256zM62.29333,175.78667c0,4.77867 1.792,9.55733 5.376,12.544c2.98667,3.584 7.76533,5.376 12.544,5.376c4.77867,0 9.55733,-1.792 12.544,-5.376l35.24267,-35.24267l35.24267,35.24267c3.584,3.584 7.76533,5.376 12.544,5.376c4.77867,0 9.55733,-1.792 12.544,-5.376c3.584,-3.584 5.376,-7.76533 5.376,-12.544c0,-4.77867 -1.792,-9.55733 -5.376,-12.544l-35.24267,-35.24267l35.24267,-35.24267c3.584,-2.98667 5.376,-7.76533 5.376,-12.544c0,-4.77867 -1.792,-9.55733 -5.376,-12.544c-2.98667,-3.584 -7.76533,-5.376 -12.544,-5.376c-4.77867,0 -9.55733,1.792 -12.544,5.376l-35.24267,35.24267l-35.24267,-35.24267c-2.98667,-3.584 -7.76533,-5.376 -12.544,-5.376c-4.77867,0 -9.55733,1.792 -12.544,5.376c-3.584,2.98667 -5.376,7.76533 -5.376,12.544c0,4.77867 1.792,9.55733 5.376,12.544l35.24267,35.24267l-35.24267,35.24267c-3.584,2.98667 -5.376,7.76533 -5.376,12.544z" id="overlayBgMask" fill="none"></path></clipPath></defs><g clip-path="url(#clip-1)" fill="none" fill-rule="nonzero" stroke="none" stroke-width="1" stroke-linecap="butt" stroke-linejoin="miter" stroke-miterlimit="10" stroke-dasharray="" stroke-dashoffset="0" font-family="none" font-weight="none" font-size="none" text-anchor="none" style="mix-blend-mode: normal"><g transform="scale(5.12,5.12)" fill="#cec3ef"><path d="M11,4c-3.84545,0 -7,3.15455 -7,7v28c0,3.84546 3.15455,7 7,7h28c3.84546,0 7,-3.15454 7,-7v-28c0,-3.84545 -3.15454,-7 -7,-7zM11,6h28c2.75455,0 5,2.24545 5,5v28c0,2.75455 -2.24545,5 -5,5h-28c-2.75455,0 -5,-2.24545 -5,-5v-28c0,-2.75455 2.24545,-5 5,-5z"></path></g></g><g fill="#cec3ef" fill-rule="nonzero" stroke="none" stroke-width="1" stroke-linecap="butt" stroke-linejoin="miter" stroke-miterlimit="10" stroke-dasharray="" stroke-dashoffset="0" font-family="none" font-weight="none" font-size="none" text-anchor="none" style="mix-blend-mode: normal"><g transform="translate(74.24,74.24) scale(5.97333,5.97333)" id="overlay"><g id="Слой_2" font-family="Inter, apple-system, &quot;system-ui&quot;, &quot;Helvetica Neue&quot;, &quot;Segoe UI&quot;, &quot;Fira Sans&quot;, Roboto, Oxygen, Ubuntu, &quot;Droid Sans&quot;, Arial, sans-serif" font-weight="400" font-size="16" text-anchor="start" visibility="hidden"></g><g id="Android_x5F_4" font-family="Inter, apple-system, &quot;system-ui&quot;, &quot;Helvetica Neue&quot;, &quot;Segoe UI&quot;, &quot;Fira Sans&quot;, Roboto, Oxygen, Ubuntu, &quot;Droid Sans&quot;, Arial, sans-serif" font-weight="400" font-size="16" text-anchor="start" visibility="hidden"></g><g id="Android_x5F_5" font-family="Inter, apple-system, &quot;system-ui&quot;, &quot;Helvetica Neue&quot;, &quot;Segoe UI&quot;, &quot;Fira Sans&quot;, Roboto, Oxygen, Ubuntu, &quot;Droid Sans&quot;, Arial, sans-serif" font-weight="400" font-size="16" text-anchor="start" visibility="hidden"></g><g id="Windows_x5F_8" font-family="Inter, apple-system, &quot;system-ui&quot;, &quot;Helvetica Neue&quot;, &quot;Segoe UI&quot;, &quot;Fira Sans&quot;, Roboto, Oxygen, Ubuntu, &quot;Droid Sans&quot;, Arial, sans-serif" font-weight="400" font-size="16" text-anchor="start" visibility="hidden"></g><g id="Windows_x5F_10" font-family="Inter, apple-system, &quot;system-ui&quot;, &quot;Helvetica Neue&quot;, &quot;Segoe UI&quot;, &quot;Fira Sans&quot;, Roboto, Oxygen, Ubuntu, &quot;Droid Sans&quot;, Arial, sans-serif" font-weight="400" font-size="16" text-anchor="start" visibility="hidden"></g><g id="Color" font-family="Inter, apple-system, &quot;system-ui&quot;, &quot;Helvetica Neue&quot;, &quot;Segoe UI&quot;, &quot;Fira Sans&quot;, Roboto, Oxygen, Ubuntu, &quot;Droid Sans&quot;, Arial, sans-serif" font-weight="400" font-size="16" text-anchor="start" visibility="hidden"></g><g id="IOS" font-family="Inter, apple-system, &quot;system-ui&quot;, &quot;Helvetica Neue&quot;, &quot;Segoe UI&quot;, &quot;Fira Sans&quot;, Roboto, Oxygen, Ubuntu, &quot;Droid Sans&quot;, Arial, sans-serif" font-weight="400" font-size="16" text-anchor="start" visibility="hidden"></g><g id="IOS_copy"><path d="M10.4,9l7.3,-7.3c0.4,-0.4 0.4,-1 0,-1.4c-0.4,-0.4 -1,-0.4 -1.4,0l-7.3,7.3l-7.3,-7.3c-0.4,-0.4 -1,-0.4 -1.4,0c-0.4,0.4 -0.4,1 0,1.4l7.3,7.3l-7.3,7.3c-0.4,0.4 -0.4,1 0,1.4c0.2,0.2 0.4,0.3 0.7,0.3c0.3,0 0.5,-0.1 0.7,-0.3l7.3,-7.3l7.3,7.3c0.2,0.2 0.5,0.3 0.7,0.3c0.2,0 0.5,-0.1 0.7,-0.3c0.4,-0.4 0.4,-1 0,-1.4z"></path></g></g></g></svg>